<svg id="1caa6b87-e216-4dbf-b698-da409b27b196" data-name="Calque 1" xmlns="http://www.w3.org/2000/svg" width="328.5" height="82" viewBox="0 0 328.5 82"><title>backgd</title><g style="opacity:0.2"><path d="M28,67.2a3.11,3.11,0,0,1-2.21-.91L.92,41.4A3.14,3.14,0,0,1,0,39.18,3.1,3.1,0,0,1,.92,37L25.81,12.08a3.13,3.13,0,0,1,4.43,4.43L7.57,39.18,30.24,61.85A3.13,3.13,0,0,1,28,67.2Z" style="fill:#fff"/><path d="M81,67.2a3.13,3.13,0,0,1-2.21-5.35l22.67-22.67L78.74,16.51a3.13,3.13,0,0,1,4.43-4.43L108.06,37a3.13,3.13,0,0,1,.91,2.21,3.17,3.17,0,0,1-.91,2.22L83.17,66.29A3.13,3.13,0,0,1,81,67.2Z" style="fill:#fff"/><path d="M232.38,67.2a3.13,3.13,0,0,1-2.22-5.35l22.68-22.67L230.16,16.51a3.14,3.14,0,0,1,4.44-4.43L259.48,37a3.1,3.1,0,0,1,.92,2.21,3.14,3.14,0,0,1-.92,2.22L234.6,66.29A3.15,3.15,0,0,1,232.38,67.2Z" style="fill:#fff"/><path d="M58,36.09l5.06,8.2a26,26,0,0,0,3.24-9.65l.11-.7h2.42q0,6.26-4.32,12.74l4.88,7.73h-9l-1.26-2a11.05,11.05,0,0,1-7,2.67,10.25,10.25,0,0,1-7.17-2.7,8.53,8.53,0,0,1-3-6.53q0-5.22,7.68-8.73c-1.74-2.55-2.6-4.69-2.6-6.4a6.75,6.75,0,0,1,2.39-5.31,9,9,0,0,1,6.09-2.08q6.75,0,6.74,6A7.42,7.42,0,0,1,58,36.09Zm-7,3.23a3.87,3.87,0,0,0-2.31,3.58,10.2,10.2,0,0,0,2.14,5.84c1.43,2,2.8,3,4.13,3a3.77,3.77,0,0,0,2.76-1.64ZM56.73,34a4.7,4.7,0,0,0,2.73-4.28q0-4-3.4-4a2.06,2.06,0,0,0-2.29,2.37,4.8,4.8,0,0,0,.81,2.49Z" style="fill:#fff"/><path d="M130.28,26.94c2.32,0,3.47,1.16,3.47,3.48s-1.15,3.48-3.47,3.48-3.48-1.16-3.48-3.48S128,26.94,130.28,26.94Zm-2.53,24.48V48.91a4.75,4.75,0,0,0,2.25-3q-3.16,0-3.16-3.38c0-2.32,1.16-3.48,3.5-3.48s3.43,1.38,3.43,4.13Q133.77,49.59,127.75,51.42Z" style="fill:#fff"/><path d="M157.64,39.23q3.75,2.49,3.75,7.86v11q0,2.31.66,2.85t3.54.54h2.76v3.3l-10.41,0q-5.88,0-5.88-8.82V45.32q0-4.56-3-5.19V37.67a3.09,3.09,0,0,0,2.76-2.73L152,33.5l0-.33V22.67q0-9.09,7-9.09h9.36V17h-4.47l-.81.06q-1.74.24-1.74,3.27V31.37A9.08,9.08,0,0,1,157.64,39.23Z" style="fill:#fff"/><path d="M283.35,31.37V20.3q0-3-1.74-3.27L280.8,17h-4.47V13.58h9.36q7,0,7,9.09v10.5l0,.33.18,1.44a3.09,3.09,0,0,0,2.76,2.73v2.46q-3,.63-3,5.19V55.94q0,8.82-5.88,8.82l-10.41,0v-3.3h2.76q2.88,0,3.54-.54t.66-2.85v-11q0-5.37,3.75-7.86A9.08,9.08,0,0,1,283.35,31.37Z" style="fill:#fff"/><path d="M197.25,28.11V32.6A8.77,8.77,0,0,0,193.18,38q5.7,0,5.7,6.05,0,6.22-6.26,6.23t-6.16-7.4Q186.46,31.37,197.25,28.11Z" style="fill:#fff"/><path d="M207.44,50.26V45.8a8.7,8.7,0,0,0,4.07-5.38c-3.8,0-5.69-2-5.69-6.05s2.08-6.23,6.26-6.23,6.16,2.47,6.16,7.4Q218.24,47.08,207.44,50.26Z" style="fill:#fff"/></g><rect x="309.98" width="18.52" height="82" style="fill:#fff;opacity:0"/></svg>